<svg xmlns="http://www.w3.org/2000/svg" viewBox="0 0 16 16" fill="none" shape-rendering="crispEdges"><metadata xmlns:rdf="http://www.w3.org/1999/02/22-rdf-syntax-ns#" xmlns:xsi="http://www.w3.org/2001/XMLSchema-instance" xmlns:dc="http://purl.org/dc/elements/1.1/" xmlns:dcterms="http://purl.org/dc/terms/"><rdf:RDF><rdf:Description><dc:title>Pixel Art</dc:title><dc:creator>DiceBear</dc:creator><dc:source xsi:type="dcterms:URI">https://www.figma.com/community/file/1198754108850888330</dc:source><dcterms:license xsi:type="dcterms:URI">https://creativecommons.org/publicdomain/zero/1.0/</dcterms:license><dc:rights>„Pixel Art” (https://www.figma.com/community/file/1198754108850888330) by „DiceBear”, licensed under „CC0 1.0” (https://creativecommons.org/publicdomain/zero/1.0/)</dc:rights></rdf:Description></rdf:RDF></metadata><mask id="viewboxMask"><rect width="16" height="16" rx="0" ry="0" x="0" y="0" fill="#fff" /></mask><g mask="url(#viewboxMask)"><path d="M4 2h8v1h1v3h1v2h-1v3h-1v1H9v1h4v1h1v2H2v-2h1v-1h4v-1H4v-1H3V8H2V6h1V3h1V2Z" fill="#a26d3d"/><path d="M4 2h8v1h1v3h1v2h-1v3h-1v1H4v-1H3V8H2V6h1V3h1V2Z" fill="#fff" fill-opacity=".1"/><path d="M10 13h3v1h1v2H2v-2h1v-1h3v1h4v-1Z" fill="#ff6f69"/><path fill="#fff" fill-opacity=".2" d="M4 13h1v3H4zM11 13h1v3h-1z"/><path fill="#fff" d="M4 5h3v2H4zM9 5h3v2H9z"/><path fill="#876658" d="M11 6h1v1h-1zM6 6h1v1H6z"/><mask id="beardVariant03-a" style="mask-type:luminance" maskUnits="userSpaceOnUse" x="3" y="9" width="10" height="5"><path opacity=".9" d="M3 9h2v1h6V9h2v2h-1v2h-1v1H5v-1H4v-2H3V9Z" fill="#611c17"/></mask><g mask="url(#beardVariant03-a)"><path fill="#611c17" d="M0 0h16v16H0z"/><path fill="#fff" fill-opacity=".3" d="M0 0h16v16H0z"/></g><path d="M7 9h2v1H7V9Z" fill="#c98276"/><path d="M13 1H3v1H2v1H1v11h2V4h10v10h2V3h-1V2h-1V1Z" fill="#611c17"/></g></svg>